<svg width="18" height="18" viewBox="0 0 18 18" fill="none" xmlns="http://www.w3.org/2000/svg">
<path d="M8.59152 0C9.26435 0.00733333 9.93444 0.08525 10.5917 0.231917C10.7315 0.263129 10.8581 0.337244 10.9537 0.443906C11.0494 0.550567 11.1093 0.684445 11.1252 0.826833L11.281 2.22658C11.303 2.42393 11.371 2.61335 11.4796 2.77961C11.5882 2.94588 11.7342 3.08433 11.9061 3.18385C12.0779 3.28336 12.2707 3.34115 12.4689 3.35257C12.6672 3.36399 12.8653 3.32871 13.0474 3.24958L14.3308 2.68583C14.4612 2.6284 14.6062 2.61291 14.7458 2.64148C14.8853 2.67005 15.0126 2.74129 15.1099 2.84533C16.0377 3.83639 16.7287 5.02483 17.1312 6.32133C17.1732 6.45768 17.1718 6.60373 17.1272 6.73923C17.0825 6.87474 16.9967 6.99299 16.8819 7.07758L15.7443 7.91725C15.584 8.03474 15.4537 8.18833 15.3638 8.36559C15.274 8.54284 15.2271 8.73877 15.2271 8.9375C15.2271 9.13623 15.274 9.33216 15.3638 9.50941C15.4537 9.68667 15.584 9.84026 15.7443 9.95775L16.8837 10.7965C16.9988 10.8812 17.0846 10.9996 17.1293 11.1353C17.174 11.271 17.1753 11.4172 17.133 11.5537C16.7308 12.8501 16.0401 14.0385 15.1127 15.0297C15.0155 15.1337 14.8885 15.205 14.7491 15.2337C14.6097 15.2624 14.4648 15.2472 14.3344 15.1901L13.0456 14.6245C12.8637 14.5448 12.6656 14.5089 12.4674 14.52C12.2691 14.531 12.0762 14.5886 11.9043 14.688C11.7324 14.7874 11.5863 14.9259 11.4778 15.0923C11.3694 15.2587 11.3017 15.4483 11.2801 15.6457L11.1243 17.0445C11.1087 17.1852 11.0501 17.3177 10.9564 17.4239C10.8627 17.53 10.7385 17.6047 10.6009 17.6376C9.27318 17.9541 7.8897 17.9541 6.56202 17.6376C6.42416 17.6048 6.29978 17.5302 6.20592 17.4241C6.11207 17.3179 6.05331 17.1853 6.03769 17.0445L5.88277 15.6475C5.86027 15.4507 5.79193 15.2619 5.68324 15.0963C5.57456 14.9307 5.42855 14.7929 5.25696 14.694C5.08536 14.595 4.89295 14.5377 4.69518 14.5266C4.49741 14.5155 4.29979 14.5509 4.11819 14.63L2.82935 15.1947C2.69887 15.252 2.5538 15.2673 2.41421 15.2386C2.27462 15.2099 2.14741 15.1384 2.05019 15.0342C1.12264 14.0419 0.432183 12.8522 0.0307699 11.5546C-0.0114918 11.4181 -0.0101902 11.2719 0.034494 11.1362C0.0791781 11.0005 0.165025 10.8821 0.280103 10.7974L1.41952 9.95775C1.5798 9.84026 1.71014 9.68667 1.79998 9.50941C1.88983 9.33216 1.93665 9.13623 1.93665 8.9375C1.93665 8.73877 1.88983 8.54284 1.79998 8.36559C1.71014 8.18833 1.5798 8.03474 1.41952 7.91725L0.280103 7.07942C0.165025 6.99476 0.0791781 6.87636 0.034494 6.74066C-0.0101902 6.60496 -0.0114918 6.45872 0.0307699 6.32225C0.433224 5.02574 1.12428 3.83731 2.05202 2.84625C2.14936 2.7422 2.27661 2.67097 2.4162 2.6424C2.55578 2.61382 2.7008 2.62932 2.83119 2.68675L4.11452 3.2505C4.29695 3.32958 4.49539 3.36477 4.6939 3.35325C4.8924 3.34172 5.08543 3.2838 5.25749 3.18413C5.42954 3.08446 5.57582 2.94583 5.68458 2.77937C5.79333 2.61291 5.86153 2.42327 5.88369 2.22567L6.03952 0.826833C6.05525 0.684158 6.11524 0.549985 6.21108 0.44313C6.30692 0.336274 6.43381 0.262097 6.57394 0.231C7.23027 0.0855556 7.9028 0.00855556 8.59152 0ZM8.59152 1.375C8.17569 1.37942 7.76078 1.41527 7.35035 1.48225L7.24952 2.37783C7.20366 2.78969 7.06169 3.18502 6.83504 3.53196C6.6084 3.87889 6.30342 4.16773 5.94468 4.3752C5.58594 4.58266 5.18349 4.70295 4.76974 4.72636C4.356 4.74978 3.94254 4.67567 3.56269 4.51L2.7386 4.14883C2.21477 4.78496 1.79775 5.50197 1.50385 6.27183L2.23444 6.80992C2.56852 7.05509 2.8402 7.37546 3.02749 7.74512C3.21478 8.11478 3.31242 8.52333 3.31251 8.93773C3.3126 9.35212 3.21514 9.76072 3.02801 10.1305C2.84088 10.5002 2.56933 10.8207 2.23535 11.066L1.50294 11.605C1.79627 12.3768 2.21427 13.0955 2.7386 13.7335L3.56819 13.3696C3.94722 13.2041 4.35981 13.1299 4.77275 13.153C5.18569 13.1761 5.58745 13.2958 5.94567 13.5025C6.30389 13.7092 6.60858 13.9972 6.8352 14.3431C7.06182 14.6891 7.20405 15.0834 7.25044 15.4944L7.35035 16.3964C8.16619 16.5339 8.99944 16.5339 9.81435 16.3964L9.91519 15.4944C9.96063 15.0828 10.1023 14.6877 10.3286 14.341C10.555 13.9942 10.8598 13.7056 11.2183 13.4984C11.5768 13.2912 11.9791 13.1712 12.3925 13.1482C12.806 13.1252 13.219 13.1998 13.5984 13.3659L14.427 13.7289C14.9514 13.0923 15.3687 12.3747 15.6627 11.6041L14.9312 11.0651C14.5971 10.8199 14.3254 10.4995 14.1381 10.1299C13.9508 9.76022 13.8532 9.35167 13.8531 8.93727C13.853 8.52288 13.9505 8.11428 14.1376 7.74455C14.3247 7.37481 14.5963 7.05432 14.9303 6.809L15.6609 6.27092C15.3668 5.50067 14.9494 4.78334 14.4252 4.147L13.6029 4.50725C13.2232 4.67349 12.8097 4.7481 12.3958 4.72506C11.9819 4.70203 11.5793 4.58199 11.2203 4.37464C10.8614 4.16729 10.5563 3.87844 10.3295 3.53142C10.1028 3.18439 9.96088 2.78891 9.91519 2.37692L9.81527 1.48225C9.41089 1.41618 9.00123 1.38033 8.59152 1.375ZM8.58052 5.5C9.4922 5.5 10.3665 5.86216 11.0112 6.50682C11.6559 7.15148 12.018 8.02582 12.018 8.9375C12.018 9.84918 11.6559 10.7235 11.0112 11.3682C10.3665 12.0128 9.4922 12.375 8.58052 12.375C7.66884 12.375 6.7945 12.0128 6.14984 11.3682C5.50518 10.7235 5.14302 9.84918 5.14302 8.9375C5.14302 8.02582 5.50518 7.15148 6.14984 6.50682C6.7945 5.86216 7.66884 5.5 8.58052 5.5ZM8.58052 6.875C8.03351 6.875 7.50891 7.0923 7.12211 7.47909C6.73532 7.86589 6.51802 8.39049 6.51802 8.9375C6.51802 9.48451 6.73532 10.0091 7.12211 10.3959C7.50891 10.7827 8.03351 11 8.58052 11C9.12753 11 9.65213 10.7827 10.0389 10.3959C10.4257 10.0091 10.643 9.48451 10.643 8.9375C10.643 8.39049 10.4257 7.86589 10.0389 7.47909C9.65213 7.0923 9.12753 6.875 8.58052 6.875Z" fill="#111315"/>
<path d="M8.59152 0C9.26435 0.00733333 9.93444 0.08525 10.5917 0.231917C10.7315 0.263129 10.8581 0.337244 10.9537 0.443906C11.0494 0.550567 11.1093 0.684445 11.1252 0.826833L11.281 2.22658C11.303 2.42393 11.371 2.61335 11.4796 2.77961C11.5882 2.94588 11.7342 3.08433 11.9061 3.18385C12.0779 3.28336 12.2707 3.34115 12.4689 3.35257C12.6672 3.36399 12.8653 3.32871 13.0474 3.24958L14.3308 2.68583C14.4612 2.6284 14.6062 2.61291 14.7458 2.64148C14.8853 2.67005 15.0126 2.74129 15.1099 2.84533C16.0377 3.83639 16.7287 5.02483 17.1312 6.32133C17.1732 6.45768 17.1718 6.60373 17.1272 6.73923C17.0825 6.87474 16.9967 6.99299 16.8819 7.07758L15.7443 7.91725C15.584 8.03474 15.4537 8.18833 15.3638 8.36559C15.274 8.54284 15.2271 8.73877 15.2271 8.9375C15.2271 9.13623 15.274 9.33216 15.3638 9.50941C15.4537 9.68667 15.584 9.84026 15.7443 9.95775L16.8837 10.7965C16.9988 10.8812 17.0846 10.9996 17.1293 11.1353C17.174 11.271 17.1753 11.4172 17.133 11.5537C16.7308 12.8501 16.0401 14.0385 15.1127 15.0297C15.0155 15.1337 14.8885 15.205 14.7491 15.2337C14.6097 15.2624 14.4648 15.2472 14.3344 15.1901L13.0456 14.6245C12.8637 14.5448 12.6656 14.5089 12.4674 14.52C12.2691 14.531 12.0762 14.5886 11.9043 14.688C11.7324 14.7874 11.5863 14.9259 11.4778 15.0923C11.3694 15.2587 11.3017 15.4483 11.2801 15.6457L11.1243 17.0445C11.1087 17.1852 11.0501 17.3177 10.9564 17.4239C10.8627 17.53 10.7385 17.6047 10.6009 17.6376C9.27318 17.9541 7.8897 17.9541 6.56202 17.6376C6.42416 17.6048 6.29978 17.5302 6.20592 17.4241C6.11207 17.3179 6.05331 17.1853 6.03769 17.0445L5.88277 15.6475C5.86027 15.4507 5.79193 15.2619 5.68324 15.0963C5.57456 14.9307 5.42855 14.7929 5.25696 14.694C5.08536 14.595 4.89295 14.5377 4.69518 14.5266C4.49741 14.5155 4.29979 14.5509 4.11819 14.63L2.82935 15.1947C2.69887 15.252 2.5538 15.2673 2.41421 15.2386C2.27462 15.2099 2.14741 15.1384 2.05019 15.0342C1.12264 14.0419 0.432183 12.8522 0.0307699 11.5546C-0.0114918 11.4181 -0.0101902 11.2719 0.034494 11.1362C0.0791781 11.0005 0.165025 10.8821 0.280103 10.7974L1.41952 9.95775C1.5798 9.84026 1.71014 9.68667 1.79998 9.50941C1.88983 9.33216 1.93665 9.13623 1.93665 8.9375C1.93665 8.73877 1.88983 8.54284 1.79998 8.36559C1.71014 8.18833 1.5798 8.03474 1.41952 7.91725L0.280103 7.07942C0.165025 6.99476 0.0791781 6.87636 0.034494 6.74066C-0.0101902 6.60496 -0.0114918 6.45872 0.0307699 6.32225C0.433224 5.02574 1.12428 3.83731 2.05202 2.84625C2.14936 2.7422 2.27661 2.67097 2.4162 2.6424C2.55578 2.61382 2.7008 2.62932 2.83119 2.68675L4.11452 3.2505C4.29695 3.32958 4.49539 3.36477 4.6939 3.35325C4.8924 3.34172 5.08543 3.2838 5.25749 3.18413C5.42954 3.08446 5.57582 2.94583 5.68458 2.77937C5.79333 2.61291 5.86153 2.42327 5.88369 2.22567L6.03952 0.826833C6.05525 0.684158 6.11524 0.549985 6.21108 0.44313C6.30692 0.336274 6.43381 0.262097 6.57394 0.231C7.23027 0.0855556 7.9028 0.00855556 8.59152 0ZM8.59152 1.375C8.17569 1.37942 7.76078 1.41527 7.35035 1.48225L7.24952 2.37783C7.20366 2.78969 7.06169 3.18502 6.83504 3.53196C6.6084 3.87889 6.30342 4.16773 5.94468 4.3752C5.58594 4.58266 5.18349 4.70295 4.76974 4.72636C4.356 4.74978 3.94254 4.67567 3.56269 4.51L2.7386 4.14883C2.21477 4.78496 1.79775 5.50197 1.50385 6.27183L2.23444 6.80992C2.56852 7.05509 2.8402 7.37546 3.02749 7.74512C3.21478 8.11478 3.31242 8.52333 3.31251 8.93773C3.3126 9.35212 3.21514 9.76072 3.02801 10.1305C2.84088 10.5002 2.56933 10.8207 2.23535 11.066L1.50294 11.605C1.79627 12.3768 2.21427 13.0955 2.7386 13.7335L3.56819 13.3696C3.94722 13.2041 4.35981 13.1299 4.77275 13.153C5.18569 13.1761 5.58745 13.2958 5.94567 13.5025C6.30389 13.7092 6.60858 13.9972 6.8352 14.3431C7.06182 14.6891 7.20405 15.0834 7.25044 15.4944L7.35035 16.3964C8.16619 16.5339 8.99944 16.5339 9.81435 16.3964L9.91519 15.4944C9.96063 15.0828 10.1023 14.6877 10.3286 14.341C10.555 13.9942 10.8598 13.7056 11.2183 13.4984C11.5768 13.2912 11.9791 13.1712 12.3925 13.1482C12.806 13.1252 13.219 13.1998 13.5984 13.3659L14.427 13.7289C14.9514 13.0923 15.3687 12.3747 15.6627 11.6041L14.9312 11.0651C14.5971 10.8199 14.3254 10.4995 14.1381 10.1299C13.9508 9.76022 13.8532 9.35167 13.8531 8.93727C13.853 8.52288 13.9505 8.11428 14.1376 7.74455C14.3247 7.37481 14.5963 7.05432 14.9303 6.809L15.6609 6.27092C15.3668 5.50067 14.9494 4.78334 14.4252 4.147L13.6029 4.50725C13.2232 4.67349 12.8097 4.7481 12.3958 4.72506C11.9819 4.70203 11.5793 4.58199 11.2203 4.37464C10.8614 4.16729 10.5563 3.87844 10.3295 3.53142C10.1028 3.18439 9.96088 2.78891 9.91519 2.37692L9.81527 1.48225C9.41089 1.41618 9.00123 1.38033 8.59152 1.375ZM8.58052 5.5C9.4922 5.5 10.3665 5.86216 11.0112 6.50682C11.6559 7.15148 12.018 8.02582 12.018 8.9375C12.018 9.84918 11.6559 10.7235 11.0112 11.3682C10.3665 12.0128 9.4922 12.375 8.58052 12.375C7.66884 12.375 6.7945 12.0128 6.14984 11.3682C5.50518 10.7235 5.14302 9.84918 5.14302 8.9375C5.14302 8.02582 5.50518 7.15148 6.14984 6.50682C6.7945 5.86216 7.66884 5.5 8.58052 5.5ZM8.58052 6.875C8.03351 6.875 7.50891 7.0923 7.12211 7.47909C6.73532 7.86589 6.51802 8.39049 6.51802 8.9375C6.51802 9.48451 6.73532 10.0091 7.12211 10.3959C7.50891 10.7827 8.03351 11 8.58052 11C9.12753 11 9.65213 10.7827 10.0389 10.3959C10.4257 10.0091 10.643 9.48451 10.643 8.9375C10.643 8.39049 10.4257 7.86589 10.0389 7.47909C9.65213 7.0923 9.12753 6.875 8.58052 6.875Z" fill="black" fill-opacity="0.2"/>
<path d="M8.59152 0C9.26435 0.00733333 9.93444 0.08525 10.5917 0.231917C10.7315 0.263129 10.8581 0.337244 10.9537 0.443906C11.0494 0.550567 11.1093 0.684445 11.1252 0.826833L11.281 2.22658C11.303 2.42393 11.371 2.61335 11.4796 2.77961C11.5882 2.94588 11.7342 3.08433 11.9061 3.18385C12.0779 3.28336 12.2707 3.34115 12.4689 3.35257C12.6672 3.36399 12.8653 3.32871 13.0474 3.24958L14.3308 2.68583C14.4612 2.6284 14.6062 2.61291 14.7458 2.64148C14.8853 2.67005 15.0126 2.74129 15.1099 2.84533C16.0377 3.83639 16.7287 5.02483 17.1312 6.32133C17.1732 6.45768 17.1718 6.60373 17.1272 6.73923C17.0825 6.87474 16.9967 6.99299 16.8819 7.07758L15.7443 7.91725C15.584 8.03474 15.4537 8.18833 15.3638 8.36559C15.274 8.54284 15.2271 8.73877 15.2271 8.9375C15.2271 9.13623 15.274 9.33216 15.3638 9.50941C15.4537 9.68667 15.584 9.84026 15.7443 9.95775L16.8837 10.7965C16.9988 10.8812 17.0846 10.9996 17.1293 11.1353C17.174 11.271 17.1753 11.4172 17.133 11.5537C16.7308 12.8501 16.0401 14.0385 15.1127 15.0297C15.0155 15.1337 14.8885 15.205 14.7491 15.2337C14.6097 15.2624 14.4648 15.2472 14.3344 15.1901L13.0456 14.6245C12.8637 14.5448 12.6656 14.5089 12.4674 14.52C12.2691 14.531 12.0762 14.5886 11.9043 14.688C11.7324 14.7874 11.5863 14.9259 11.4778 15.0923C11.3694 15.2587 11.3017 15.4483 11.2801 15.6457L11.1243 17.0445C11.1087 17.1852 11.0501 17.3177 10.9564 17.4239C10.8627 17.53 10.7385 17.6047 10.6009 17.6376C9.27318 17.9541 7.8897 17.9541 6.56202 17.6376C6.42416 17.6048 6.29978 17.5302 6.20592 17.4241C6.11207 17.3179 6.05331 17.1853 6.03769 17.0445L5.88277 15.6475C5.86027 15.4507 5.79193 15.2619 5.68324 15.0963C5.57456 14.9307 5.42855 14.7929 5.25696 14.694C5.08536 14.595 4.89295 14.5377 4.69518 14.5266C4.49741 14.5155 4.29979 14.5509 4.11819 14.63L2.82935 15.1947C2.69887 15.252 2.5538 15.2673 2.41421 15.2386C2.27462 15.2099 2.14741 15.1384 2.05019 15.0342C1.12264 14.0419 0.432183 12.8522 0.0307699 11.5546C-0.0114918 11.4181 -0.0101902 11.2719 0.034494 11.1362C0.0791781 11.0005 0.165025 10.8821 0.280103 10.7974L1.41952 9.95775C1.5798 9.84026 1.71014 9.68667 1.79998 9.50941C1.88983 9.33216 1.93665 9.13623 1.93665 8.9375C1.93665 8.73877 1.88983 8.54284 1.79998 8.36559C1.71014 8.18833 1.5798 8.03474 1.41952 7.91725L0.280103 7.07942C0.165025 6.99476 0.0791781 6.87636 0.034494 6.74066C-0.0101902 6.60496 -0.0114918 6.45872 0.0307699 6.32225C0.433224 5.02574 1.12428 3.83731 2.05202 2.84625C2.14936 2.7422 2.27661 2.67097 2.4162 2.6424C2.55578 2.61382 2.7008 2.62932 2.83119 2.68675L4.11452 3.2505C4.29695 3.32958 4.49539 3.36477 4.6939 3.35325C4.8924 3.34172 5.08543 3.2838 5.25749 3.18413C5.42954 3.08446 5.57582 2.94583 5.68458 2.77937C5.79333 2.61291 5.86153 2.42327 5.88369 2.22567L6.03952 0.826833C6.05525 0.684158 6.11524 0.549985 6.21108 0.44313C6.30692 0.336274 6.43381 0.262097 6.57394 0.231C7.23027 0.0855556 7.9028 0.00855556 8.59152 0ZM8.59152 1.375C8.17569 1.37942 7.76078 1.41527 7.35035 1.48225L7.24952 2.37783C7.20366 2.78969 7.06169 3.18502 6.83504 3.53196C6.6084 3.87889 6.30342 4.16773 5.94468 4.3752C5.58594 4.58266 5.18349 4.70295 4.76974 4.72636C4.356 4.74978 3.94254 4.67567 3.56269 4.51L2.7386 4.14883C2.21477 4.78496 1.79775 5.50197 1.50385 6.27183L2.23444 6.80992C2.56852 7.05509 2.8402 7.37546 3.02749 7.74512C3.21478 8.11478 3.31242 8.52333 3.31251 8.93773C3.3126 9.35212 3.21514 9.76072 3.02801 10.1305C2.84088 10.5002 2.56933 10.8207 2.23535 11.066L1.50294 11.605C1.79627 12.3768 2.21427 13.0955 2.7386 13.7335L3.56819 13.3696C3.94722 13.2041 4.35981 13.1299 4.77275 13.153C5.18569 13.1761 5.58745 13.2958 5.94567 13.5025C6.30389 13.7092 6.60858 13.9972 6.8352 14.3431C7.06182 14.6891 7.20405 15.0834 7.25044 15.4944L7.35035 16.3964C8.16619 16.5339 8.99944 16.5339 9.81435 16.3964L9.91519 15.4944C9.96063 15.0828 10.1023 14.6877 10.3286 14.341C10.555 13.9942 10.8598 13.7056 11.2183 13.4984C11.5768 13.2912 11.9791 13.1712 12.3925 13.1482C12.806 13.1252 13.219 13.1998 13.5984 13.3659L14.427 13.7289C14.9514 13.0923 15.3687 12.3747 15.6627 11.6041L14.9312 11.0651C14.5971 10.8199 14.3254 10.4995 14.1381 10.1299C13.9508 9.76022 13.8532 9.35167 13.8531 8.93727C13.853 8.52288 13.9505 8.11428 14.1376 7.74455C14.3247 7.37481 14.5963 7.05432 14.9303 6.809L15.6609 6.27092C15.3668 5.50067 14.9494 4.78334 14.4252 4.147L13.6029 4.50725C13.2232 4.67349 12.8097 4.7481 12.3958 4.72506C11.9819 4.70203 11.5793 4.58199 11.2203 4.37464C10.8614 4.16729 10.5563 3.87844 10.3295 3.53142C10.1028 3.18439 9.96088 2.78891 9.91519 2.37692L9.81527 1.48225C9.41089 1.41618 9.00123 1.38033 8.59152 1.375ZM8.58052 5.5C9.4922 5.5 10.3665 5.86216 11.0112 6.50682C11.6559 7.15148 12.018 8.02582 12.018 8.9375C12.018 9.84918 11.6559 10.7235 11.0112 11.3682C10.3665 12.0128 9.4922 12.375 8.58052 12.375C7.66884 12.375 6.7945 12.0128 6.14984 11.3682C5.50518 10.7235 5.14302 9.84918 5.14302 8.9375C5.14302 8.02582 5.50518 7.15148 6.14984 6.50682C6.7945 5.86216 7.66884 5.5 8.58052 5.5ZM8.58052 6.875C8.03351 6.875 7.50891 7.0923 7.12211 7.47909C6.73532 7.86589 6.51802 8.39049 6.51802 8.9375C6.51802 9.48451 6.73532 10.0091 7.12211 10.3959C7.50891 10.7827 8.03351 11 8.58052 11C9.12753 11 9.65213 10.7827 10.0389 10.3959C10.4257 10.0091 10.643 9.48451 10.643 8.9375C10.643 8.39049 10.4257 7.86589 10.0389 7.47909C9.65213 7.0923 9.12753 6.875 8.58052 6.875Z" fill="black" fill-opacity="0.2"/>
<path d="M8.59152 0C9.26435 0.00733333 9.93444 0.08525 10.5917 0.231917C10.7315 0.263129 10.8581 0.337244 10.9537 0.443906C11.0494 0.550567 11.1093 0.684445 11.1252 0.826833L11.281 2.22658C11.303 2.42393 11.371 2.61335 11.4796 2.77961C11.5882 2.94588 11.7342 3.08433 11.9061 3.18385C12.0779 3.28336 12.2707 3.34115 12.4689 3.35257C12.6672 3.36399 12.8653 3.32871 13.0474 3.24958L14.3308 2.68583C14.4612 2.6284 14.6062 2.61291 14.7458 2.64148C14.8853 2.67005 15.0126 2.74129 15.1099 2.84533C16.0377 3.83639 16.7287 5.02483 17.1312 6.32133C17.1732 6.45768 17.1718 6.60373 17.1272 6.73923C17.0825 6.87474 16.9967 6.99299 16.8819 7.07758L15.7443 7.91725C15.584 8.03474 15.4537 8.18833 15.3638 8.36559C15.274 8.54284 15.2271 8.73877 15.2271 8.9375C15.2271 9.13623 15.274 9.33216 15.3638 9.50941C15.4537 9.68667 15.584 9.84026 15.7443 9.95775L16.8837 10.7965C16.9988 10.8812 17.0846 10.9996 17.1293 11.1353C17.174 11.271 17.1753 11.4172 17.133 11.5537C16.7308 12.8501 16.0401 14.0385 15.1127 15.0297C15.0155 15.1337 14.8885 15.205 14.7491 15.2337C14.6097 15.2624 14.4648 15.2472 14.3344 15.1901L13.0456 14.6245C12.8637 14.5448 12.6656 14.5089 12.4674 14.52C12.2691 14.531 12.0762 14.5886 11.9043 14.688C11.7324 14.7874 11.5863 14.9259 11.4778 15.0923C11.3694 15.2587 11.3017 15.4483 11.2801 15.6457L11.1243 17.0445C11.1087 17.1852 11.0501 17.3177 10.9564 17.4239C10.8627 17.53 10.7385 17.6047 10.6009 17.6376C9.27318 17.9541 7.8897 17.9541 6.56202 17.6376C6.42416 17.6048 6.29978 17.5302 6.20592 17.4241C6.11207 17.3179 6.05331 17.1853 6.03769 17.0445L5.88277 15.6475C5.86027 15.4507 5.79193 15.2619 5.68324 15.0963C5.57456 14.9307 5.42855 14.7929 5.25696 14.694C5.08536 14.595 4.89295 14.5377 4.69518 14.5266C4.49741 14.5155 4.29979 14.5509 4.11819 14.63L2.82935 15.1947C2.69887 15.252 2.5538 15.2673 2.41421 15.2386C2.27462 15.2099 2.14741 15.1384 2.05019 15.0342C1.12264 14.0419 0.432183 12.8522 0.0307699 11.5546C-0.0114918 11.4181 -0.0101902 11.2719 0.034494 11.1362C0.0791781 11.0005 0.165025 10.8821 0.280103 10.7974L1.41952 9.95775C1.5798 9.84026 1.71014 9.68667 1.79998 9.50941C1.88983 9.33216 1.93665 9.13623 1.93665 8.9375C1.93665 8.73877 1.88983 8.54284 1.79998 8.36559C1.71014 8.18833 1.5798 8.03474 1.41952 7.91725L0.280103 7.07942C0.165025 6.99476 0.0791781 6.87636 0.034494 6.74066C-0.0101902 6.60496 -0.0114918 6.45872 0.0307699 6.32225C0.433224 5.02574 1.12428 3.83731 2.05202 2.84625C2.14936 2.7422 2.27661 2.67097 2.4162 2.6424C2.55578 2.61382 2.7008 2.62932 2.83119 2.68675L4.11452 3.2505C4.29695 3.32958 4.49539 3.36477 4.6939 3.35325C4.8924 3.34172 5.08543 3.2838 5.25749 3.18413C5.42954 3.08446 5.57582 2.94583 5.68458 2.77937C5.79333 2.61291 5.86153 2.42327 5.88369 2.22567L6.03952 0.826833C6.05525 0.684158 6.11524 0.549985 6.21108 0.44313C6.30692 0.336274 6.43381 0.262097 6.57394 0.231C7.23027 0.0855556 7.9028 0.00855556 8.59152 0ZM8.59152 1.375C8.17569 1.37942 7.76078 1.41527 7.35035 1.48225L7.24952 2.37783C7.20366 2.78969 7.06169 3.18502 6.83504 3.53196C6.6084 3.87889 6.30342 4.16773 5.94468 4.3752C5.58594 4.58266 5.18349 4.70295 4.76974 4.72636C4.356 4.74978 3.94254 4.67567 3.56269 4.51L2.7386 4.14883C2.21477 4.78496 1.79775 5.50197 1.50385 6.27183L2.23444 6.80992C2.56852 7.05509 2.8402 7.37546 3.02749 7.74512C3.21478 8.11478 3.31242 8.52333 3.31251 8.93773C3.3126 9.35212 3.21514 9.76072 3.02801 10.1305C2.84088 10.5002 2.56933 10.8207 2.23535 11.066L1.50294 11.605C1.79627 12.3768 2.21427 13.0955 2.7386 13.7335L3.56819 13.3696C3.94722 13.2041 4.35981 13.1299 4.77275 13.153C5.18569 13.1761 5.58745 13.2958 5.94567 13.5025C6.30389 13.7092 6.60858 13.9972 6.8352 14.3431C7.06182 14.6891 7.20405 15.0834 7.25044 15.4944L7.35035 16.3964C8.16619 16.5339 8.99944 16.5339 9.81435 16.3964L9.91519 15.4944C9.96063 15.0828 10.1023 14.6877 10.3286 14.341C10.555 13.9942 10.8598 13.7056 11.2183 13.4984C11.5768 13.2912 11.9791 13.1712 12.3925 13.1482C12.806 13.1252 13.219 13.1998 13.5984 13.3659L14.427 13.7289C14.9514 13.0923 15.3687 12.3747 15.6627 11.6041L14.9312 11.0651C14.5971 10.8199 14.3254 10.4995 14.1381 10.1299C13.9508 9.76022 13.8532 9.35167 13.8531 8.93727C13.853 8.52288 13.9505 8.11428 14.1376 7.74455C14.3247 7.37481 14.5963 7.05432 14.9303 6.809L15.6609 6.27092C15.3668 5.50067 14.9494 4.78334 14.4252 4.147L13.6029 4.50725C13.2232 4.67349 12.8097 4.7481 12.3958 4.72506C11.9819 4.70203 11.5793 4.58199 11.2203 4.37464C10.8614 4.16729 10.5563 3.87844 10.3295 3.53142C10.1028 3.18439 9.96088 2.78891 9.91519 2.37692L9.81527 1.48225C9.41089 1.41618 9.00123 1.38033 8.59152 1.375ZM8.58052 5.5C9.4922 5.5 10.3665 5.86216 11.0112 6.50682C11.6559 7.15148 12.018 8.02582 12.018 8.9375C12.018 9.84918 11.6559 10.7235 11.0112 11.3682C10.3665 12.0128 9.4922 12.375 8.58052 12.375C7.66884 12.375 6.7945 12.0128 6.14984 11.3682C5.50518 10.7235 5.14302 9.84918 5.14302 8.9375C5.14302 8.02582 5.50518 7.15148 6.14984 6.50682C6.7945 5.86216 7.66884 5.5 8.58052 5.5ZM8.58052 6.875C8.03351 6.875 7.50891 7.0923 7.12211 7.47909C6.73532 7.86589 6.51802 8.39049 6.51802 8.9375C6.51802 9.48451 6.73532 10.0091 7.12211 10.3959C7.50891 10.7827 8.03351 11 8.58052 11C9.12753 11 9.65213 10.7827 10.0389 10.3959C10.4257 10.0091 10.643 9.48451 10.643 8.9375C10.643 8.39049 10.4257 7.86589 10.0389 7.47909C9.65213 7.0923 9.12753 6.875 8.58052 6.875Z" fill="black" fill-opacity="0.2"/>
<path d="M8.59152 0C9.26435 0.00733333 9.93444 0.08525 10.5917 0.231917C10.7315 0.263129 10.8581 0.337244 10.9537 0.443906C11.0494 0.550567 11.1093 0.684445 11.1252 0.826833L11.281 2.22658C11.303 2.42393 11.371 2.61335 11.4796 2.77961C11.5882 2.94588 11.7342 3.08433 11.9061 3.18385C12.0779 3.28336 12.2707 3.34115 12.4689 3.35257C12.6672 3.36399 12.8653 3.32871 13.0474 3.24958L14.3308 2.68583C14.4612 2.6284 14.6062 2.61291 14.7458 2.64148C14.8853 2.67005 15.0126 2.74129 15.1099 2.84533C16.0377 3.83639 16.7287 5.02483 17.1312 6.32133C17.1732 6.45768 17.1718 6.60373 17.1272 6.73923C17.0825 6.87474 16.9967 6.99299 16.8819 7.07758L15.7443 7.91725C15.584 8.03474 15.4537 8.18833 15.3638 8.36559C15.274 8.54284 15.2271 8.73877 15.2271 8.9375C15.2271 9.13623 15.274 9.33216 15.3638 9.50941C15.4537 9.68667 15.584 9.84026 15.7443 9.95775L16.8837 10.7965C16.9988 10.8812 17.0846 10.9996 17.1293 11.1353C17.174 11.271 17.1753 11.4172 17.133 11.5537C16.7308 12.8501 16.0401 14.0385 15.1127 15.0297C15.0155 15.1337 14.8885 15.205 14.7491 15.2337C14.6097 15.2624 14.4648 15.2472 14.3344 15.1901L13.0456 14.6245C12.8637 14.5448 12.6656 14.5089 12.4674 14.52C12.2691 14.531 12.0762 14.5886 11.9043 14.688C11.7324 14.7874 11.5863 14.9259 11.4778 15.0923C11.3694 15.2587 11.3017 15.4483 11.2801 15.6457L11.1243 17.0445C11.1087 17.1852 11.0501 17.3177 10.9564 17.4239C10.8627 17.53 10.7385 17.6047 10.6009 17.6376C9.27318 17.9541 7.8897 17.9541 6.56202 17.6376C6.42416 17.6048 6.29978 17.5302 6.20592 17.4241C6.11207 17.3179 6.05331 17.1853 6.03769 17.0445L5.88277 15.6475C5.86027 15.4507 5.79193 15.2619 5.68324 15.0963C5.57456 14.9307 5.42855 14.7929 5.25696 14.694C5.08536 14.595 4.89295 14.5377 4.69518 14.5266C4.49741 14.5155 4.29979 14.5509 4.11819 14.63L2.82935 15.1947C2.69887 15.252 2.5538 15.2673 2.41421 15.2386C2.27462 15.2099 2.14741 15.1384 2.05019 15.0342C1.12264 14.0419 0.432183 12.8522 0.0307699 11.5546C-0.0114918 11.4181 -0.0101902 11.2719 0.034494 11.1362C0.0791781 11.0005 0.165025 10.8821 0.280103 10.7974L1.41952 9.95775C1.5798 9.84026 1.71014 9.68667 1.79998 9.50941C1.88983 9.33216 1.93665 9.13623 1.93665 8.9375C1.93665 8.73877 1.88983 8.54284 1.79998 8.36559C1.71014 8.18833 1.5798 8.03474 1.41952 7.91725L0.280103 7.07942C0.165025 6.99476 0.0791781 6.87636 0.034494 6.74066C-0.0101902 6.60496 -0.0114918 6.45872 0.0307699 6.32225C0.433224 5.02574 1.12428 3.83731 2.05202 2.84625C2.14936 2.7422 2.27661 2.67097 2.4162 2.6424C2.55578 2.61382 2.7008 2.62932 2.83119 2.68675L4.11452 3.2505C4.29695 3.32958 4.49539 3.36477 4.6939 3.35325C4.8924 3.34172 5.08543 3.2838 5.25749 3.18413C5.42954 3.08446 5.57582 2.94583 5.68458 2.77937C5.79333 2.61291 5.86153 2.42327 5.88369 2.22567L6.03952 0.826833C6.05525 0.684158 6.11524 0.549985 6.21108 0.44313C6.30692 0.336274 6.43381 0.262097 6.57394 0.231C7.23027 0.0855556 7.9028 0.00855556 8.59152 0ZM8.59152 1.375C8.17569 1.37942 7.76078 1.41527 7.35035 1.48225L7.24952 2.37783C7.20366 2.78969 7.06169 3.18502 6.83504 3.53196C6.6084 3.87889 6.30342 4.16773 5.94468 4.3752C5.58594 4.58266 5.18349 4.70295 4.76974 4.72636C4.356 4.74978 3.94254 4.67567 3.56269 4.51L2.7386 4.14883C2.21477 4.78496 1.79775 5.50197 1.50385 6.27183L2.23444 6.80992C2.56852 7.05509 2.8402 7.37546 3.02749 7.74512C3.21478 8.11478 3.31242 8.52333 3.31251 8.93773C3.3126 9.35212 3.21514 9.76072 3.02801 10.1305C2.84088 10.5002 2.56933 10.8207 2.23535 11.066L1.50294 11.605C1.79627 12.3768 2.21427 13.0955 2.7386 13.7335L3.56819 13.3696C3.94722 13.2041 4.35981 13.1299 4.77275 13.153C5.18569 13.1761 5.58745 13.2958 5.94567 13.5025C6.30389 13.7092 6.60858 13.9972 6.8352 14.3431C7.06182 14.6891 7.20405 15.0834 7.25044 15.4944L7.35035 16.3964C8.16619 16.5339 8.99944 16.5339 9.81435 16.3964L9.91519 15.4944C9.96063 15.0828 10.1023 14.6877 10.3286 14.341C10.555 13.9942 10.8598 13.7056 11.2183 13.4984C11.5768 13.2912 11.9791 13.1712 12.3925 13.1482C12.806 13.1252 13.219 13.1998 13.5984 13.3659L14.427 13.7289C14.9514 13.0923 15.3687 12.3747 15.6627 11.6041L14.9312 11.0651C14.5971 10.8199 14.3254 10.4995 14.1381 10.1299C13.9508 9.76022 13.8532 9.35167 13.8531 8.93727C13.853 8.52288 13.9505 8.11428 14.1376 7.74455C14.3247 7.37481 14.5963 7.05432 14.9303 6.809L15.6609 6.27092C15.3668 5.50067 14.9494 4.78334 14.4252 4.147L13.6029 4.50725C13.2232 4.67349 12.8097 4.7481 12.3958 4.72506C11.9819 4.70203 11.5793 4.58199 11.2203 4.37464C10.8614 4.16729 10.5563 3.87844 10.3295 3.53142C10.1028 3.18439 9.96088 2.78891 9.91519 2.37692L9.81527 1.48225C9.41089 1.41618 9.00123 1.38033 8.59152 1.375ZM8.58052 5.5C9.4922 5.5 10.3665 5.86216 11.0112 6.50682C11.6559 7.15148 12.018 8.02582 12.018 8.9375C12.018 9.84918 11.6559 10.7235 11.0112 11.3682C10.3665 12.0128 9.4922 12.375 8.58052 12.375C7.66884 12.375 6.7945 12.0128 6.14984 11.3682C5.50518 10.7235 5.14302 9.84918 5.14302 8.9375C5.14302 8.02582 5.50518 7.15148 6.14984 6.50682C6.7945 5.86216 7.66884 5.5 8.58052 5.5ZM8.58052 6.875C8.03351 6.875 7.50891 7.0923 7.12211 7.47909C6.73532 7.86589 6.51802 8.39049 6.51802 8.9375C6.51802 9.48451 6.73532 10.0091 7.12211 10.3959C7.50891 10.7827 8.03351 11 8.58052 11C9.12753 11 9.65213 10.7827 10.0389 10.3959C10.4257 10.0091 10.643 9.48451 10.643 8.9375C10.643 8.39049 10.4257 7.86589 10.0389 7.47909C9.65213 7.0923 9.12753 6.875 8.58052 6.875Z" fill="black" fill-opacity="0.2"/>
<path d="M8.59152 0C9.26435 0.00733333 9.93444 0.08525 10.5917 0.231917C10.7315 0.263129 10.8581 0.337244 10.9537 0.443906C11.0494 0.550567 11.1093 0.684445 11.1252 0.826833L11.281 2.22658C11.303 2.42393 11.371 2.61335 11.4796 2.77961C11.5882 2.94588 11.7342 3.08433 11.9061 3.18385C12.0779 3.28336 12.2707 3.34115 12.4689 3.35257C12.6672 3.36399 12.8653 3.32871 13.0474 3.24958L14.3308 2.68583C14.4612 2.6284 14.6062 2.61291 14.7458 2.64148C14.8853 2.67005 15.0126 2.74129 15.1099 2.84533C16.0377 3.83639 16.7287 5.02483 17.1312 6.32133C17.1732 6.45768 17.1718 6.60373 17.1272 6.73923C17.0825 6.87474 16.9967 6.99299 16.8819 7.07758L15.7443 7.91725C15.584 8.03474 15.4537 8.18833 15.3638 8.36559C15.274 8.54284 15.2271 8.73877 15.2271 8.9375C15.2271 9.13623 15.274 9.33216 15.3638 9.50941C15.4537 9.68667 15.584 9.84026 15.7443 9.95775L16.8837 10.7965C16.9988 10.8812 17.0846 10.9996 17.1293 11.1353C17.174 11.271 17.1753 11.4172 17.133 11.5537C16.7308 12.8501 16.0401 14.0385 15.1127 15.0297C15.0155 15.1337 14.8885 15.205 14.7491 15.2337C14.6097 15.2624 14.4648 15.2472 14.3344 15.1901L13.0456 14.6245C12.8637 14.5448 12.6656 14.5089 12.4674 14.52C12.2691 14.531 12.0762 14.5886 11.9043 14.688C11.7324 14.7874 11.5863 14.9259 11.4778 15.0923C11.3694 15.2587 11.3017 15.4483 11.2801 15.6457L11.1243 17.0445C11.1087 17.1852 11.0501 17.3177 10.9564 17.4239C10.8627 17.53 10.7385 17.6047 10.6009 17.6376C9.27318 17.9541 7.8897 17.9541 6.56202 17.6376C6.42416 17.6048 6.29978 17.5302 6.20592 17.4241C6.11207 17.3179 6.05331 17.1853 6.03769 17.0445L5.88277 15.6475C5.86027 15.4507 5.79193 15.2619 5.68324 15.0963C5.57456 14.9307 5.42855 14.7929 5.25696 14.694C5.08536 14.595 4.89295 14.5377 4.69518 14.5266C4.49741 14.5155 4.29979 14.5509 4.11819 14.63L2.82935 15.1947C2.69887 15.252 2.5538 15.2673 2.41421 15.2386C2.27462 15.2099 2.14741 15.1384 2.05019 15.0342C1.12264 14.0419 0.432183 12.8522 0.0307699 11.5546C-0.0114918 11.4181 -0.0101902 11.2719 0.034494 11.1362C0.0791781 11.0005 0.165025 10.8821 0.280103 10.7974L1.41952 9.95775C1.5798 9.84026 1.71014 9.68667 1.79998 9.50941C1.88983 9.33216 1.93665 9.13623 1.93665 8.9375C1.93665 8.73877 1.88983 8.54284 1.79998 8.36559C1.71014 8.18833 1.5798 8.03474 1.41952 7.91725L0.280103 7.07942C0.165025 6.99476 0.0791781 6.87636 0.034494 6.74066C-0.0101902 6.60496 -0.0114918 6.45872 0.0307699 6.32225C0.433224 5.02574 1.12428 3.83731 2.05202 2.84625C2.14936 2.7422 2.27661 2.67097 2.4162 2.6424C2.55578 2.61382 2.7008 2.62932 2.83119 2.68675L4.11452 3.2505C4.29695 3.32958 4.49539 3.36477 4.6939 3.35325C4.8924 3.34172 5.08543 3.2838 5.25749 3.18413C5.42954 3.08446 5.57582 2.94583 5.68458 2.77937C5.79333 2.61291 5.86153 2.42327 5.88369 2.22567L6.03952 0.826833C6.05525 0.684158 6.11524 0.549985 6.21108 0.44313C6.30692 0.336274 6.43381 0.262097 6.57394 0.231C7.23027 0.0855556 7.9028 0.00855556 8.59152 0ZM8.59152 1.375C8.17569 1.37942 7.76078 1.41527 7.35035 1.48225L7.24952 2.37783C7.20366 2.78969 7.06169 3.18502 6.83504 3.53196C6.6084 3.87889 6.30342 4.16773 5.94468 4.3752C5.58594 4.58266 5.18349 4.70295 4.76974 4.72636C4.356 4.74978 3.94254 4.67567 3.56269 4.51L2.7386 4.14883C2.21477 4.78496 1.79775 5.50197 1.50385 6.27183L2.23444 6.80992C2.56852 7.05509 2.8402 7.37546 3.02749 7.74512C3.21478 8.11478 3.31242 8.52333 3.31251 8.93773C3.3126 9.35212 3.21514 9.76072 3.02801 10.1305C2.84088 10.5002 2.56933 10.8207 2.23535 11.066L1.50294 11.605C1.79627 12.3768 2.21427 13.0955 2.7386 13.7335L3.56819 13.3696C3.94722 13.2041 4.35981 13.1299 4.77275 13.153C5.18569 13.1761 5.58745 13.2958 5.94567 13.5025C6.30389 13.7092 6.60858 13.9972 6.8352 14.3431C7.06182 14.6891 7.20405 15.0834 7.25044 15.4944L7.35035 16.3964C8.16619 16.5339 8.99944 16.5339 9.81435 16.3964L9.91519 15.4944C9.96063 15.0828 10.1023 14.6877 10.3286 14.341C10.555 13.9942 10.8598 13.7056 11.2183 13.4984C11.5768 13.2912 11.9791 13.1712 12.3925 13.1482C12.806 13.1252 13.219 13.1998 13.5984 13.3659L14.427 13.7289C14.9514 13.0923 15.3687 12.3747 15.6627 11.6041L14.9312 11.0651C14.5971 10.8199 14.3254 10.4995 14.1381 10.1299C13.9508 9.76022 13.8532 9.35167 13.8531 8.93727C13.853 8.52288 13.9505 8.11428 14.1376 7.74455C14.3247 7.37481 14.5963 7.05432 14.9303 6.809L15.6609 6.27092C15.3668 5.50067 14.9494 4.78334 14.4252 4.147L13.6029 4.50725C13.2232 4.67349 12.8097 4.7481 12.3958 4.72506C11.9819 4.70203 11.5793 4.58199 11.2203 4.37464C10.8614 4.16729 10.5563 3.87844 10.3295 3.53142C10.1028 3.18439 9.96088 2.78891 9.91519 2.37692L9.81527 1.48225C9.41089 1.41618 9.00123 1.38033 8.59152 1.375ZM8.58052 5.5C9.4922 5.5 10.3665 5.86216 11.0112 6.50682C11.6559 7.15148 12.018 8.02582 12.018 8.9375C12.018 9.84918 11.6559 10.7235 11.0112 11.3682C10.3665 12.0128 9.4922 12.375 8.58052 12.375C7.66884 12.375 6.7945 12.0128 6.14984 11.3682C5.50518 10.7235 5.14302 9.84918 5.14302 8.9375C5.14302 8.02582 5.50518 7.15148 6.14984 6.50682C6.7945 5.86216 7.66884 5.5 8.58052 5.5ZM8.58052 6.875C8.03351 6.875 7.50891 7.0923 7.12211 7.47909C6.73532 7.86589 6.51802 8.39049 6.51802 8.9375C6.51802 9.48451 6.73532 10.0091 7.12211 10.3959C7.50891 10.7827 8.03351 11 8.58052 11C9.12753 11 9.65213 10.7827 10.0389 10.3959C10.4257 10.0091 10.643 9.48451 10.643 8.9375C10.643 8.39049 10.4257 7.86589 10.0389 7.47909C9.65213 7.0923 9.12753 6.875 8.58052 6.875Z" fill="black" fill-opacity="0.2"/>
<path d="M8.59152 0C9.26435 0.00733333 9.93444 0.08525 10.5917 0.231917C10.7315 0.263129 10.8581 0.337244 10.9537 0.443906C11.0494 0.550567 11.1093 0.684445 11.1252 0.826833L11.281 2.22658C11.303 2.42393 11.371 2.61335 11.4796 2.77961C11.5882 2.94588 11.7342 3.08433 11.9061 3.18385C12.0779 3.28336 12.2707 3.34115 12.4689 3.35257C12.6672 3.36399 12.8653 3.32871 13.0474 3.24958L14.3308 2.68583C14.4612 2.6284 14.6062 2.61291 14.7458 2.64148C14.8853 2.67005 15.0126 2.74129 15.1099 2.84533C16.0377 3.83639 16.7287 5.02483 17.1312 6.32133C17.1732 6.45768 17.1718 6.60373 17.1272 6.73923C17.0825 6.87474 16.9967 6.99299 16.8819 7.07758L15.7443 7.91725C15.584 8.03474 15.4537 8.18833 15.3638 8.36559C15.274 8.54284 15.2271 8.73877 15.2271 8.9375C15.2271 9.13623 15.274 9.33216 15.3638 9.50941C15.4537 9.68667 15.584 9.84026 15.7443 9.95775L16.8837 10.7965C16.9988 10.8812 17.0846 10.9996 17.1293 11.1353C17.174 11.271 17.1753 11.4172 17.133 11.5537C16.7308 12.8501 16.0401 14.0385 15.1127 15.0297C15.0155 15.1337 14.8885 15.205 14.7491 15.2337C14.6097 15.2624 14.4648 15.2472 14.3344 15.1901L13.0456 14.6245C12.8637 14.5448 12.6656 14.5089 12.4674 14.52C12.2691 14.531 12.0762 14.5886 11.9043 14.688C11.7324 14.7874 11.5863 14.9259 11.4778 15.0923C11.3694 15.2587 11.3017 15.4483 11.2801 15.6457L11.1243 17.0445C11.1087 17.1852 11.0501 17.3177 10.9564 17.4239C10.8627 17.53 10.7385 17.6047 10.6009 17.6376C9.27318 17.9541 7.8897 17.9541 6.56202 17.6376C6.42416 17.6048 6.29978 17.5302 6.20592 17.4241C6.11207 17.3179 6.05331 17.1853 6.03769 17.0445L5.88277 15.6475C5.86027 15.4507 5.79193 15.2619 5.68324 15.0963C5.57456 14.9307 5.42855 14.7929 5.25696 14.694C5.08536 14.595 4.89295 14.5377 4.69518 14.5266C4.49741 14.5155 4.29979 14.5509 4.11819 14.63L2.82935 15.1947C2.69887 15.252 2.5538 15.2673 2.41421 15.2386C2.27462 15.2099 2.14741 15.1384 2.05019 15.0342C1.12264 14.0419 0.432183 12.8522 0.0307699 11.5546C-0.0114918 11.4181 -0.0101902 11.2719 0.034494 11.1362C0.0791781 11.0005 0.165025 10.8821 0.280103 10.7974L1.41952 9.95775C1.5798 9.84026 1.71014 9.68667 1.79998 9.50941C1.88983 9.33216 1.93665 9.13623 1.93665 8.9375C1.93665 8.73877 1.88983 8.54284 1.79998 8.36559C1.71014 8.18833 1.5798 8.03474 1.41952 7.91725L0.280103 7.07942C0.165025 6.99476 0.0791781 6.87636 0.034494 6.74066C-0.0101902 6.60496 -0.0114918 6.45872 0.0307699 6.32225C0.433224 5.02574 1.12428 3.83731 2.05202 2.84625C2.14936 2.7422 2.27661 2.67097 2.4162 2.6424C2.55578 2.61382 2.7008 2.62932 2.83119 2.68675L4.11452 3.2505C4.29695 3.32958 4.49539 3.36477 4.6939 3.35325C4.8924 3.34172 5.08543 3.2838 5.25749 3.18413C5.42954 3.08446 5.57582 2.94583 5.68458 2.77937C5.79333 2.61291 5.86153 2.42327 5.88369 2.22567L6.03952 0.826833C6.05525 0.684158 6.11524 0.549985 6.21108 0.44313C6.30692 0.336274 6.43381 0.262097 6.57394 0.231C7.23027 0.0855556 7.9028 0.00855556 8.59152 0ZM8.59152 1.375C8.17569 1.37942 7.76078 1.41527 7.35035 1.48225L7.24952 2.37783C7.20366 2.78969 7.06169 3.18502 6.83504 3.53196C6.6084 3.87889 6.30342 4.16773 5.94468 4.3752C5.58594 4.58266 5.18349 4.70295 4.76974 4.72636C4.356 4.74978 3.94254 4.67567 3.56269 4.51L2.7386 4.14883C2.21477 4.78496 1.79775 5.50197 1.50385 6.27183L2.23444 6.80992C2.56852 7.05509 2.8402 7.37546 3.02749 7.74512C3.21478 8.11478 3.31242 8.52333 3.31251 8.93773C3.3126 9.35212 3.21514 9.76072 3.02801 10.1305C2.84088 10.5002 2.56933 10.8207 2.23535 11.066L1.50294 11.605C1.79627 12.3768 2.21427 13.0955 2.7386 13.7335L3.56819 13.3696C3.94722 13.2041 4.35981 13.1299 4.77275 13.153C5.18569 13.1761 5.58745 13.2958 5.94567 13.5025C6.30389 13.7092 6.60858 13.9972 6.8352 14.3431C7.06182 14.6891 7.20405 15.0834 7.25044 15.4944L7.35035 16.3964C8.16619 16.5339 8.99944 16.5339 9.81435 16.3964L9.91519 15.4944C9.96063 15.0828 10.1023 14.6877 10.3286 14.341C10.555 13.9942 10.8598 13.7056 11.2183 13.4984C11.5768 13.2912 11.9791 13.1712 12.3925 13.1482C12.806 13.1252 13.219 13.1998 13.5984 13.3659L14.427 13.7289C14.9514 13.0923 15.3687 12.3747 15.6627 11.6041L14.9312 11.0651C14.5971 10.8199 14.3254 10.4995 14.1381 10.1299C13.9508 9.76022 13.8532 9.35167 13.8531 8.93727C13.853 8.52288 13.9505 8.11428 14.1376 7.74455C14.3247 7.37481 14.5963 7.05432 14.9303 6.809L15.6609 6.27092C15.3668 5.50067 14.9494 4.78334 14.4252 4.147L13.6029 4.50725C13.2232 4.67349 12.8097 4.7481 12.3958 4.72506C11.9819 4.70203 11.5793 4.58199 11.2203 4.37464C10.8614 4.16729 10.5563 3.87844 10.3295 3.53142C10.1028 3.18439 9.96088 2.78891 9.91519 2.37692L9.81527 1.48225C9.41089 1.41618 9.00123 1.38033 8.59152 1.375ZM8.58052 5.5C9.4922 5.5 10.3665 5.86216 11.0112 6.50682C11.6559 7.15148 12.018 8.02582 12.018 8.9375C12.018 9.84918 11.6559 10.7235 11.0112 11.3682C10.3665 12.0128 9.4922 12.375 8.58052 12.375C7.66884 12.375 6.7945 12.0128 6.14984 11.3682C5.50518 10.7235 5.14302 9.84918 5.14302 8.9375C5.14302 8.02582 5.50518 7.15148 6.14984 6.50682C6.7945 5.86216 7.66884 5.5 8.58052 5.5ZM8.58052 6.875C8.03351 6.875 7.50891 7.0923 7.12211 7.47909C6.73532 7.86589 6.51802 8.39049 6.51802 8.9375C6.51802 9.48451 6.73532 10.0091 7.12211 10.3959C7.50891 10.7827 8.03351 11 8.58052 11C9.12753 11 9.65213 10.7827 10.0389 10.3959C10.4257 10.0091 10.643 9.48451 10.643 8.9375C10.643 8.39049 10.4257 7.86589 10.0389 7.47909C9.65213 7.0923 9.12753 6.875 8.58052 6.875Z" fill="black" fill-opacity="0.2"/>
<path d="M8.59152 0C9.26435 0.00733333 9.93444 0.08525 10.5917 0.231917C10.7315 0.263129 10.8581 0.337244 10.9537 0.443906C11.0494 0.550567 11.1093 0.684445 11.1252 0.826833L11.281 2.22658C11.303 2.42393 11.371 2.61335 11.4796 2.77961C11.5882 2.94588 11.7342 3.08433 11.9061 3.18385C12.0779 3.28336 12.2707 3.34115 12.4689 3.35257C12.6672 3.36399 12.8653 3.32871 13.0474 3.24958L14.3308 2.68583C14.4612 2.6284 14.6062 2.61291 14.7458 2.64148C14.8853 2.67005 15.0126 2.74129 15.1099 2.84533C16.0377 3.83639 16.7287 5.02483 17.1312 6.32133C17.1732 6.45768 17.1718 6.60373 17.1272 6.73923C17.0825 6.87474 16.9967 6.99299 16.8819 7.07758L15.7443 7.91725C15.584 8.03474 15.4537 8.18833 15.3638 8.36559C15.274 8.54284 15.2271 8.73877 15.2271 8.9375C15.2271 9.13623 15.274 9.33216 15.3638 9.50941C15.4537 9.68667 15.584 9.84026 15.7443 9.95775L16.8837 10.7965C16.9988 10.8812 17.0846 10.9996 17.1293 11.1353C17.174 11.271 17.1753 11.4172 17.133 11.5537C16.7308 12.8501 16.0401 14.0385 15.1127 15.0297C15.0155 15.1337 14.8885 15.205 14.7491 15.2337C14.6097 15.2624 14.4648 15.2472 14.3344 15.1901L13.0456 14.6245C12.8637 14.5448 12.6656 14.5089 12.4674 14.52C12.2691 14.531 12.0762 14.5886 11.9043 14.688C11.7324 14.7874 11.5863 14.9259 11.4778 15.0923C11.3694 15.2587 11.3017 15.4483 11.2801 15.6457L11.1243 17.0445C11.1087 17.1852 11.0501 17.3177 10.9564 17.4239C10.8627 17.53 10.7385 17.6047 10.6009 17.6376C9.27318 17.9541 7.8897 17.9541 6.56202 17.6376C6.42416 17.6048 6.29978 17.5302 6.20592 17.4241C6.11207 17.3179 6.05331 17.1853 6.03769 17.0445L5.88277 15.6475C5.86027 15.4507 5.79193 15.2619 5.68324 15.0963C5.57456 14.9307 5.42855 14.7929 5.25696 14.694C5.08536 14.595 4.89295 14.5377 4.69518 14.5266C4.49741 14.5155 4.29979 14.5509 4.11819 14.63L2.82935 15.1947C2.69887 15.252 2.5538 15.2673 2.41421 15.2386C2.27462 15.2099 2.14741 15.1384 2.05019 15.0342C1.12264 14.0419 0.432183 12.8522 0.0307699 11.5546C-0.0114918 11.4181 -0.0101902 11.2719 0.034494 11.1362C0.0791781 11.0005 0.165025 10.8821 0.280103 10.7974L1.41952 9.95775C1.5798 9.84026 1.71014 9.68667 1.79998 9.50941C1.88983 9.33216 1.93665 9.13623 1.93665 8.9375C1.93665 8.73877 1.88983 8.54284 1.79998 8.36559C1.71014 8.18833 1.5798 8.03474 1.41952 7.91725L0.280103 7.07942C0.165025 6.99476 0.0791781 6.87636 0.034494 6.74066C-0.0101902 6.60496 -0.0114918 6.45872 0.0307699 6.32225C0.433224 5.02574 1.12428 3.83731 2.05202 2.84625C2.14936 2.7422 2.27661 2.67097 2.4162 2.6424C2.55578 2.61382 2.7008 2.62932 2.83119 2.68675L4.11452 3.2505C4.29695 3.32958 4.49539 3.36477 4.6939 3.35325C4.8924 3.34172 5.08543 3.2838 5.25749 3.18413C5.42954 3.08446 5.57582 2.94583 5.68458 2.77937C5.79333 2.61291 5.86153 2.42327 5.88369 2.22567L6.03952 0.826833C6.05525 0.684158 6.11524 0.549985 6.21108 0.44313C6.30692 0.336274 6.43381 0.262097 6.57394 0.231C7.23027 0.0855556 7.9028 0.00855556 8.59152 0ZM8.59152 1.375C8.17569 1.37942 7.76078 1.41527 7.35035 1.48225L7.24952 2.37783C7.20366 2.78969 7.06169 3.18502 6.83504 3.53196C6.6084 3.87889 6.30342 4.16773 5.94468 4.3752C5.58594 4.58266 5.18349 4.70295 4.76974 4.72636C4.356 4.74978 3.94254 4.67567 3.56269 4.51L2.7386 4.14883C2.21477 4.78496 1.79775 5.50197 1.50385 6.27183L2.23444 6.80992C2.56852 7.05509 2.8402 7.37546 3.02749 7.74512C3.21478 8.11478 3.31242 8.52333 3.31251 8.93773C3.3126 9.35212 3.21514 9.76072 3.02801 10.1305C2.84088 10.5002 2.56933 10.8207 2.23535 11.066L1.50294 11.605C1.79627 12.3768 2.21427 13.0955 2.7386 13.7335L3.56819 13.3696C3.94722 13.2041 4.35981 13.1299 4.77275 13.153C5.18569 13.1761 5.58745 13.2958 5.94567 13.5025C6.30389 13.7092 6.60858 13.9972 6.8352 14.3431C7.06182 14.6891 7.20405 15.0834 7.25044 15.4944L7.35035 16.3964C8.16619 16.5339 8.99944 16.5339 9.81435 16.3964L9.91519 15.4944C9.96063 15.0828 10.1023 14.6877 10.3286 14.341C10.555 13.9942 10.8598 13.7056 11.2183 13.4984C11.5768 13.2912 11.9791 13.1712 12.3925 13.1482C12.806 13.1252 13.219 13.1998 13.5984 13.3659L14.427 13.7289C14.9514 13.0923 15.3687 12.3747 15.6627 11.6041L14.9312 11.0651C14.5971 10.8199 14.3254 10.4995 14.1381 10.1299C13.9508 9.76022 13.8532 9.35167 13.8531 8.93727C13.853 8.52288 13.9505 8.11428 14.1376 7.74455C14.3247 7.37481 14.5963 7.05432 14.9303 6.809L15.6609 6.27092C15.3668 5.50067 14.9494 4.78334 14.4252 4.147L13.6029 4.50725C13.2232 4.67349 12.8097 4.7481 12.3958 4.72506C11.9819 4.70203 11.5793 4.58199 11.2203 4.37464C10.8614 4.16729 10.5563 3.87844 10.3295 3.53142C10.1028 3.18439 9.96088 2.78891 9.91519 2.37692L9.81527 1.48225C9.41089 1.41618 9.00123 1.38033 8.59152 1.375ZM8.58052 5.5C9.4922 5.5 10.3665 5.86216 11.0112 6.50682C11.6559 7.15148 12.018 8.02582 12.018 8.9375C12.018 9.84918 11.6559 10.7235 11.0112 11.3682C10.3665 12.0128 9.4922 12.375 8.58052 12.375C7.66884 12.375 6.7945 12.0128 6.14984 11.3682C5.50518 10.7235 5.14302 9.84918 5.14302 8.9375C5.14302 8.02582 5.50518 7.15148 6.14984 6.50682C6.7945 5.86216 7.66884 5.5 8.58052 5.5ZM8.58052 6.875C8.03351 6.875 7.50891 7.0923 7.12211 7.47909C6.73532 7.86589 6.51802 8.39049 6.51802 8.9375C6.51802 9.48451 6.73532 10.0091 7.12211 10.3959C7.50891 10.7827 8.03351 11 8.58052 11C9.12753 11 9.65213 10.7827 10.0389 10.3959C10.4257 10.0091 10.643 9.48451 10.643 8.9375C10.643 8.39049 10.4257 7.86589 10.0389 7.47909C9.65213 7.0923 9.12753 6.875 8.58052 6.875Z" fill="black" fill-opacity="0.2"/>
</svg>
